<svg id="Calque_1" data-name="Calque 1" xmlns="http://www.w3.org/2000/svg" viewBox="0 0 40 40">
  <title>sun</title>
  <path
    d="M965.23,530.62a13.33,13.33,0,1,1-13.33-13.33,13.33,13.33,0,0,1,13.33,13.33m-11.66-18.33a1.67,1.67,0,1,1-1.67-1.67,1.66,1.66,0,0,1,1.67,1.67m0,36.66a1.67,1.67,0,1,1-1.67-1.66,1.67,1.67,0,0,1,1.67,1.66m16.66-16.66a1.67,1.67,0,1,1,1.67-1.67,1.66,1.66,0,0,1-1.67,1.67m-36.66,0a1.67,1.67,0,1,1,1.66-1.67,1.67,1.67,0,0,1-1.66,1.67M966,518.83a1.66,1.66,0,1,1-2.39-2.31l0,0a1.66,1.66,0,0,1,2.35,2.35m-25.93,25.93a1.66,1.66,0,0,1-2.39-2.31l0,0a1.66,1.66,0,0,1,2.35,2.35m23.58,0a1.67,1.67,0,0,1,2.31-2.4l0,0a1.66,1.66,0,0,1-2.35,2.35m-25.93-25.93a1.67,1.67,0,0,1,2.31-2.4l0,.05a1.66,1.66,0,0,1-2.35,2.35"
    transform="translate(-931.9 -510.62)" />
</svg>