<svg id="Calque_1" data-name="Calque 1" xmlns="http://www.w3.org/2000/svg" viewBox="0 0 40 40">
  <defs>
    <style>
      .cls-1 {
        opacity: 0;
      }
    </style>
  </defs>
  <title>moon</title>
  <g class="cls-1">
    <path d="M876.57,512.29a1.67,1.67,0,1,1-1.67-1.67A1.66,1.66,0,0,1,876.57,512.29Z"
      transform="translate(-854.9 -510.62)" />
    <path d="M894.9,530.62a1.67,1.67,0,1,1-1.67-1.67A1.67,1.67,0,0,1,894.9,530.62Z"
      transform="translate(-854.9 -510.62)" />
    <path d="M876.57,549a1.67,1.67,0,1,1-1.67-1.67A1.67,1.67,0,0,1,876.57,549Z" transform="translate(-854.9 -510.62)" />
    <path d="M858.24,530.62a1.67,1.67,0,1,1-1.67-1.67A1.67,1.67,0,0,1,858.24,530.62Z"
      transform="translate(-854.9 -510.62)" />
  </g>
  <path
    d="M869.43,522.32a.23.23,0,0,1-.14.29l-1.18.39a1.8,1.8,0,0,0-1.12,1.13l-.4,1.18a.22.22,0,0,1-.41,0l-.4-1.18a1.77,1.77,0,0,0-1.12-1.13l-1.19-.39a.2.2,0,0,1-.13-.14.24.24,0,0,1,.13-.29l1.19-.39a1.74,1.74,0,0,0,1.12-1.12l.4-1.18a.2.2,0,0,1,.13-.14.21.21,0,0,1,.28.14l.4,1.18a1.76,1.76,0,0,0,1.12,1.12l1.18.39A.24.24,0,0,1,869.43,522.32Z"
    transform="translate(-854.9 -510.62)" />
  <path
    d="M876.06,529.55l-1.78.6a2.66,2.66,0,0,0-1.68,1.67l-.59,1.79a.28.28,0,0,1-.21.2.33.33,0,0,1-.42-.2l-.6-1.79a2.62,2.62,0,0,0-1.67-1.67l-1.79-.6a.32.32,0,0,1-.2-.21.33.33,0,0,1,.2-.42l1.79-.59a2.66,2.66,0,0,0,1.67-1.68l.6-1.78a.32.32,0,0,1,.21-.21.34.34,0,0,1,.42.21l.59,1.78a2.7,2.7,0,0,0,1.68,1.68l1.78.59a.32.32,0,0,1,.21.21A.33.33,0,0,1,876.06,529.55Z"
    transform="translate(-854.9 -510.62)" />
  <path
    d="M888.15,532.15a13.33,13.33,0,0,1-24,6.33.67.67,0,0,1,.76-1,12.31,12.31,0,0,0,14.29-18.16.68.68,0,0,1,.82-1A13.33,13.33,0,0,1,888.15,532.15Z"
    transform="translate(-854.9 -510.62)" />
</svg>